<svg width="12" height="12" viewBox="0 0 12 12" fill="none" xmlns="http://www.w3.org/2000/svg">
<path fill-rule="evenodd" clip-rule="evenodd" d="M8.70749 7.19101C8.55849 7.11651 7.82799 6.75751 7.69199 6.70751C7.55599 6.65801 7.45699 6.63351 7.35749 6.78251C7.25849 6.93051 6.97399 7.26551 6.88749 7.36451C6.80049 7.46401 6.71399 7.47601 6.56549 7.40201C6.41699 7.32701 5.93799 7.17051 5.37049 6.66451C4.92899 6.27051 4.63049 5.78401 4.54399 5.63501C4.45749 5.48651 4.53449 5.40601 4.60899 5.33201C4.67599 5.26551 4.75749 5.15851 4.83199 5.07201C4.90649 4.98501 4.93099 4.92301 4.98049 4.82351C5.03049 4.72451 5.00549 4.63801 4.96799 4.56351C4.93099 4.48901 4.63399 3.75751 4.50999 3.46001C4.38949 3.17052 4.26699 3.21002 4.17599 3.20502C4.08899 3.20102 3.98999 3.20002 3.89099 3.20002C3.79199 3.20002 3.63099 3.23702 3.49499 3.38601C3.35849 3.53451 2.97499 3.89401 2.97499 4.62551C2.97499 5.35651 3.50699 6.06301 3.58149 6.16251C3.65599 6.26151 4.62899 7.76251 6.11949 8.40601C6.47449 8.55901 6.75099 8.65051 6.96649 8.71851C7.32249 8.83201 7.64649 8.81601 7.90249 8.77751C8.18749 8.73501 8.78149 8.41801 8.90549 8.07101C9.02899 7.72401 9.02898 7.42651 8.99198 7.36451C8.95498 7.30251 8.85599 7.26551 8.70699 7.19101H8.70749ZM5.99649 10.8925H5.99449C5.10921 10.8927 4.24018 10.6547 3.47849 10.2035L3.29849 10.0965L1.4275 10.5875L1.927 8.76351L1.8095 8.57651C1.31457 7.78868 1.05265 6.8769 1.054 5.94651C1.055 3.22152 3.27199 1.00452 5.99849 1.00452C7.31849 1.00452 8.55949 1.51952 9.49248 2.45352C9.95267 2.91181 10.3174 3.4568 10.5656 4.05696C10.8138 4.65713 10.9406 5.30055 10.9385 5.95001C10.9375 8.67501 8.72049 10.8925 5.99649 10.8925V10.8925ZM10.2025 1.74402C9.65158 1.18948 8.9961 0.749788 8.27403 0.45042C7.55196 0.151052 6.77766 -0.00203812 5.99599 2.04887e-05C2.719 2.04887e-05 0.0509999 2.66752 0.0499999 5.94601C0.0494999 6.99401 0.322999 8.01701 0.843499 8.91851L0 12L3.15199 11.173C4.02393 11.6481 5.00104 11.897 5.99399 11.897H5.99649C9.27348 11.897 11.9415 9.22951 11.9425 5.95051C11.9449 5.16915 11.7924 4.39506 11.4937 3.67303C11.195 2.951 10.7562 2.29535 10.2025 1.74402" fill="#41E960"/>
</svg>
